HIERARCHY
ROOT Hips
{
	OFFSET 0.000000 0.000000 0.000000
	CHANNELS 6 Xposition Yposition Zposition Xrotation Yrotation Zrotation
	JOINT LeftUpLeg_virtual
	{
		OFFSET 0.000000 0.000000 0.000000
		CHANNELS 3 Xrotation Yrotation Zrotation
		JOINT LeftUpLeg
		{
			OFFSET 10.205400 -3.823500 0.155100
			CHANNELS 3 Xrotation Yrotation Zrotation
			JOINT LeftLeg
			{
				OFFSET 0.708757 -12.982077 0.567790
				CHANNELS 3 Xrotation Yrotation Zrotation
				JOINT LeftFoot
				{
					OFFSET -0.708756 -10.717838 -2.184338
					CHANNELS 3 Xrotation Yrotation Zrotation
					JOINT LeftToeBase
					{
						OFFSET 0.108149 -7.191104 7.560241
						CHANNELS 3 Xrotation Yrotation Zrotation
						JOINT LeftToe_End
						{
							OFFSET 0.070230 0.081724 4.490308
							CHANNELS 3 Xrotation Yrotation Zrotation
							End Site
							{
								OFFSET 0 0 0
							}
						}
					}
				}
			}
		}
	}
	JOINT RightUpLeg_virtual
	{
		OFFSET 0.000000 0.000000 0.000000
		CHANNELS 3 Xrotation Yrotation Zrotation
		JOINT RightUpLeg
		{
			OFFSET -10.205400 -3.823500 0.005500
			CHANNELS 3 Xrotation Yrotation Zrotation
			JOINT RightLeg
			{
				OFFSET -0.708756 -12.982134 0.610632
				CHANNELS 3 Xrotation Yrotation Zrotation
				JOINT RightFoot
				{
					OFFSET 0.708754 -10.717769 -1.945823
					CHANNELS 3 Xrotation Yrotation Zrotation
					JOINT RightToeBase
					{
						OFFSET -0.108140 -7.191069 7.372968
						CHANNELS 3 Xrotation Yrotation Zrotation
						JOINT RightToe_End
						{
							OFFSET -0.070227 0.081735 4.479403
							CHANNELS 3 Xrotation Yrotation Zrotation
							End Site
							{
								OFFSET 0 0 0
							}
						}
					}
				}
			}
		}
	}
	JOINT Spine_virtual
	{
		OFFSET 0.000000 0.000000 0.000000
		CHANNELS 3 Xrotation Yrotation Zrotation
		JOINT Spine
		{
			OFFSET 0.000000 6.876099 0.125700
			CHANNELS 3 Xrotation Yrotation Zrotation
			JOINT Spine1
			{
				OFFSET 0.000000 5.730043 0.104720
				CHANNELS 3 Xrotation Yrotation Zrotation
				JOINT Spine1_split
				{
					OFFSET 0.000000 5.730043 0.104720
					CHANNELS 3 Xrotation Yrotation Zrotation
					JOINT Spine2
					{
						OFFSET 0.000000 5.730043 0.104720
						CHANNELS 3 Xrotation Yrotation Zrotation
						JOINT Neck_virtual
						{
							OFFSET 0.000000 0.000000 0.000000
							CHANNELS 3 Xrotation Yrotation Zrotation
							JOINT Neck
							{
								OFFSET 0.000000 10.314075 0.188496
								CHANNELS 3 Xrotation Yrotation Zrotation
								JOINT Head
								{
									OFFSET 0.000000 7.643700 -2.377400
									CHANNELS 3 Xrotation Yrotation Zrotation
									JOINT HeadTop_End
									{
										OFFSET 0.000000 43.788605 -13.619600
										CHANNELS 3 Xrotation Yrotation Zrotation
										End Site
										{
											OFFSET 0 0 0
										}
									}
								}
							}
						}
						JOINT LeftShoulder_virtual
						{
							OFFSET 0.000000 0.000000 0.000000
							CHANNELS 3 Xrotation Yrotation Zrotation
							JOINT LeftShoulder
							{
								OFFSET 2.196100 4.412489 0.087492
								CHANNELS 3 Xrotation Yrotation Zrotation
								JOINT LeftShoulder_split
								{
									OFFSET 2.196100 4.412489 0.087492
									CHANNELS 3 Xrotation Yrotation Zrotation
									JOINT LeftArm
									{
										OFFSET 8.771219 -2.981674 -0.026999
										CHANNELS 3 Xrotation Yrotation Zrotation
										JOINT LeftForeArm
										{
											OFFSET 8.512804 0.000000 -0.000000
											CHANNELS 3 Xrotation Yrotation Zrotation
											JOINT LeftHand
											{
												OFFSET 18.484802 0.000000 -0.000000
												CHANNELS 3 Xrotation Yrotation Zrotation
												End Site
												{
													OFFSET 0 0 0
												}
											}
										}
									}
								}
							}
						}
						JOINT RightShoulder_virtual
						{
							OFFSET 0.000000 0.000000 0.000000
							CHANNELS 3 Xrotation Yrotation Zrotation
							JOINT RightShoulder
							{
								OFFSET -2.196100 4.412496 0.070690
								CHANNELS 3 Xrotation Yrotation Zrotation
								JOINT RightShoulder_split
								{
									OFFSET -2.196100 4.412496 0.070690
									CHANNELS 3 Xrotation Yrotation Zrotation
									JOINT RightArm
									{
										OFFSET -8.771282 -2.981682 -0.094208
										CHANNELS 3 Xrotation Yrotation Zrotation
										JOINT RightForeArm
										{
											OFFSET -8.494598 0.000000 0.000000
											CHANNELS 3 Xrotation Yrotation Zrotation
											JOINT RightHand
											{
												OFFSET -18.483803 0.000000 0.000001
												CHANNELS 3 Xrotation Yrotation Zrotation
												End Site
												{
													OFFSET 0 0 0
												}
											}
										}
									}
								}
							}
						}
					}
				}
			}
		}
	}
}
MOTION
Frames: 4
Frame Time: 0.03333333
-0.053118 32.803055 -0.756162 0.000000 0.000000 0.000000 -1.599598 -1.138549 -0.933484 -11.871116 2.414468 12.716723 32.052005 2.216111 1.130017 -19.020134 4.886161 -13.684375 1.463678 0.216932 -0.345187 0.000000 0.000000 0.000000 -1.493143 -1.014295 -0.838862 -13.500807 1.691773 -6.996565 34.288485 0.486460 -0.970274 -17.575347 -1.979902 9.737218 3.250492 0.232192 1.108378 0.000000 0.000000 0.000000 -1.595519 -1.950893 -1.056189 1.375098 -0.837603 -0.039669 -1.685024 -0.246078 0.650367 0.884369 0.351284 0.001420 0.000000 0.000000 0.000000 -2.011339 -0.110345 0.716464 -0.941653 -0.282965 -0.673525 5.098135 -1.887590 2.414560 0.000000 0.000000 0.000000 -2.314002 -0.022035 0.409100 1.172816 -11.008970 -9.859697 -3.062498 0.618272 -1.709079 21.145081 -21.754706 -65.088520 -1.112546 -17.663919 1.299083 0.000000 0.000000 0.000000 -1.745181 -0.023184 0.738979 1.671491 5.825779 10.713114 -1.835703 2.205369 -1.634784 6.159953 24.124985 65.968317 0.509955 15.915628 0.683126 0.000000 0.000000 0.000000 
-0.010209 32.844582 -0.743917 0.000000 0.000000 0.000000 -1.594338 -1.139410 -0.915145 -11.883121 2.283518 12.653380 31.866340 2.352321 1.080527 -18.903759 4.880598 -13.412575 1.366767 0.245076 -0.331080 0.000000 0.000000 0.000000 -1.474104 -1.064624 -0.838183 -13.150664 1.784699 -6.995255 34.113124 0.402338 -1.101170 -17.532706 -2.069459 9.139789 3.042112 0.197513 1.244642 0.000000 0.000000 0.000000 -1.525770 -2.025082 -1.130753 1.227047 -0.801910 0.023703 -1.631225 -0.240930 0.640730 0.965039 0.464028 0.059435 0.000000 0.000000 0.000000 -2.015601 -0.113182 0.713038 -0.937241 -0.245909 -0.685429 5.039857 -1.933902 2.363547 0.000000 0.000000 0.000000 -2.286631 -0.006372 0.410870 1.172342 -11.060056 -9.983384 -3.120409 0.690974 -1.705820 21.125828 -21.854182 -65.126824 -1.107658 -17.722558 1.153329 0.000000 0.000000 0.000000 -1.710048 -0.016911 0.727639 1.699289 5.988259 10.770152 -1.764865 2.391568 -1.650232 6.315826 24.189071 65.825477 0.560505 15.813566 0.694913 0.000000 0.000000 0.000000 
0.024821 32.885220 -0.729133 0.000000 0.000000 0.000000 -1.641447 -1.217595 -0.924143 -11.883337 2.167783 12.540799 31.638263 2.660072 1.176072 -18.676707 4.731200 -13.127975 1.348907 0.288279 -0.273611 0.000000 0.000000 0.000000 -1.458410 -1.056133 -0.904475 -12.742803 1.875672 -6.952112 34.069042 0.310753 -1.345732 -18.098661 -2.114098 8.278823 2.893642 0.205398 1.215306 0.000000 0.000000 0.000000 -1.452562 -2.148991 -1.252657 1.186641 -0.734086 0.158553 -1.536670 -0.225622 0.613773 1.016176 0.472549 0.056309 0.000000 0.000000 0.000000 -1.992912 -0.111167 0.689631 -0.949186 -0.180597 -0.757953 4.797824 -2.015542 2.385188 0.000000 0.000000 0.000000 -2.223194 0.011025 0.391430 1.159751 -11.178009 -10.162206 -3.203548 0.914537 -1.679168 21.036464 -21.856216 -65.141959 -1.021463 -17.906673 1.027741 0.000000 0.000000 0.000000 -1.646047 -0.010557 0.687187 1.756267 6.164431 10.818431 -1.629887 2.555517 -1.675041 6.597653 24.455646 65.429182 0.629456 15.894718 0.692357 0.000000 0.000000 0.000000 
0.060929 32.894859 -0.730114 0.000000 0.000000 0.000000 -1.706211 -1.389612 -0.939732 -11.843913 2.118534 12.335130 31.483631 3.117200 1.410996 -18.502317 4.514800 -12.869360 1.351255 0.343821 -0.173919 0.000000 0.000000 0.000000 -1.419173 -1.039156 -0.964820 -12.543464 1.907175 -6.975641 34.210147 0.265164 -1.527746 -18.774694 -2.136155 7.474141 2.682647 0.232897 1.034984 0.000000 0.000000 0.000000 -1.380943 -2.341094 -1.348434 1.259160 -0.654208 0.310153 -1.398593 -0.195608 0.575008 0.987343 0.444655 -0.008858 0.000000 0.000000 0.000000 -1.924216 -0.098685 0.655744 -0.985899 -0.100030 -0.861702 4.368613 -2.131577 2.504694 0.000000 0.000000 0.000000 -2.121866 0.034081 0.358975 1.128247 -11.341033 -10.354411 -3.338354 1.158660 -1.622407 20.922526 -21.850458 -65.025320 -0.890097 -18.162931 0.898440 0.000000 0.000000 0.000000 -1.555262 -0.000087 0.624271 1.836564 6.339643 10.826779 -1.440935 2.657126 -1.675816 6.907650 24.899586 64.829157 0.698562 16.134787 0.685729 0.000000 0.000000 0.000000 
